<mxfile host="app.diagrams.net" modified="2023-06-01T00:43:21.339Z" agent="Mozilla/5.0 (Windows NT 10.0; Win64; x64) AppleWebKit/537.36 (KHTML, like Gecko) Chrome/114.0.0.0 Safari/537.36" etag="jCReZso6syouYD6qIjDJ" version="21.3.5" type="device">
  <diagram name="페이지-1" id="u04Fi7n9D_amgBK0dXfo">
    <mxGraphModel dx="2868" dy="1512" grid="1" gridSize="10" guides="1" tooltips="1" connect="1" arrows="1" fold="1" page="1" pageScale="1" pageWidth="4681" pageHeight="3300" math="0" shadow="0">
      <root>
        <mxCell id="0" />
        <mxCell id="1" parent="0" />
        <mxCell id="AmVM3wQ6yCeUiGvBXNtz-12" style="edgeStyle=orthogonalEdgeStyle;rounded=0;orthogonalLoop=1;jettySize=auto;html=1;" edge="1" parent="1" source="AmVM3wQ6yCeUiGvBXNtz-1" target="AmVM3wQ6yCeUiGvBXNtz-11">
          <mxGeometry relative="1" as="geometry" />
        </mxCell>
        <mxCell id="AmVM3wQ6yCeUiGvBXNtz-1" value="user&lt;br style=&quot;font-size: 37px;&quot;&gt;" style="shape=umlActor;verticalLabelPosition=bottom;verticalAlign=top;html=1;outlineConnect=0;fontSize=37;fillColor=#d5e8d4;strokeColor=#82b366;" vertex="1" parent="1">
          <mxGeometry x="120" y="40" width="280" height="470" as="geometry" />
        </mxCell>
        <mxCell id="AmVM3wQ6yCeUiGvBXNtz-17" style="rounded=0;orthogonalLoop=1;jettySize=auto;html=1;entryX=0.5;entryY=0;entryDx=0;entryDy=0;" edge="1" parent="1" source="AmVM3wQ6yCeUiGvBXNtz-11" target="AmVM3wQ6yCeUiGvBXNtz-13">
          <mxGeometry relative="1" as="geometry" />
        </mxCell>
        <mxCell id="AmVM3wQ6yCeUiGvBXNtz-19" style="rounded=0;orthogonalLoop=1;jettySize=auto;html=1;" edge="1" parent="1" source="AmVM3wQ6yCeUiGvBXNtz-11" target="AmVM3wQ6yCeUiGvBXNtz-15">
          <mxGeometry relative="1" as="geometry" />
        </mxCell>
        <mxCell id="AmVM3wQ6yCeUiGvBXNtz-21" style="rounded=0;orthogonalLoop=1;jettySize=auto;html=1;" edge="1" parent="1" source="AmVM3wQ6yCeUiGvBXNtz-11" target="AmVM3wQ6yCeUiGvBXNtz-16">
          <mxGeometry relative="1" as="geometry" />
        </mxCell>
        <mxCell id="AmVM3wQ6yCeUiGvBXNtz-32" style="edgeStyle=none;shape=connector;rounded=0;orthogonalLoop=1;jettySize=auto;html=1;labelBackgroundColor=default;strokeColor=default;fontFamily=Helvetica;fontSize=11;fontColor=default;endArrow=classic;entryX=0;entryY=0.5;entryDx=0;entryDy=0;" edge="1" parent="1" source="AmVM3wQ6yCeUiGvBXNtz-11" target="AmVM3wQ6yCeUiGvBXNtz-31">
          <mxGeometry relative="1" as="geometry">
            <mxPoint x="1660" y="275" as="targetPoint" />
          </mxGeometry>
        </mxCell>
        <mxCell id="AmVM3wQ6yCeUiGvBXNtz-11" value="로그인 하기&amp;nbsp;" style="ellipse;whiteSpace=wrap;html=1;fontSize=35;" vertex="1" parent="1">
          <mxGeometry x="1000" y="165" width="430" height="220" as="geometry" />
        </mxCell>
        <mxCell id="AmVM3wQ6yCeUiGvBXNtz-26" style="edgeStyle=none;shape=connector;rounded=0;orthogonalLoop=1;jettySize=auto;html=1;labelBackgroundColor=default;strokeColor=default;fontFamily=Helvetica;fontSize=11;fontColor=default;endArrow=classic;" edge="1" parent="1" source="AmVM3wQ6yCeUiGvBXNtz-13" target="AmVM3wQ6yCeUiGvBXNtz-22">
          <mxGeometry relative="1" as="geometry" />
        </mxCell>
        <mxCell id="AmVM3wQ6yCeUiGvBXNtz-13" value="회원가입 하기" style="ellipse;whiteSpace=wrap;html=1;fontSize=35;" vertex="1" parent="1">
          <mxGeometry x="490" y="580" width="430" height="220" as="geometry" />
        </mxCell>
        <mxCell id="AmVM3wQ6yCeUiGvBXNtz-20" style="rounded=0;orthogonalLoop=1;jettySize=auto;html=1;" edge="1" parent="1" source="AmVM3wQ6yCeUiGvBXNtz-15" target="AmVM3wQ6yCeUiGvBXNtz-16">
          <mxGeometry relative="1" as="geometry" />
        </mxCell>
        <mxCell id="AmVM3wQ6yCeUiGvBXNtz-34" style="edgeStyle=none;shape=connector;rounded=0;orthogonalLoop=1;jettySize=auto;html=1;labelBackgroundColor=default;strokeColor=default;fontFamily=Helvetica;fontSize=11;fontColor=default;endArrow=classic;" edge="1" parent="1" source="AmVM3wQ6yCeUiGvBXNtz-15" target="AmVM3wQ6yCeUiGvBXNtz-28">
          <mxGeometry relative="1" as="geometry" />
        </mxCell>
        <mxCell id="AmVM3wQ6yCeUiGvBXNtz-15" value="아이디 찾기&amp;nbsp;" style="ellipse;whiteSpace=wrap;html=1;fontSize=35;" vertex="1" parent="1">
          <mxGeometry x="1560" y="540" width="430" height="220" as="geometry" />
        </mxCell>
        <mxCell id="AmVM3wQ6yCeUiGvBXNtz-16" value="비밀번호 찾기" style="ellipse;whiteSpace=wrap;html=1;fontSize=35;" vertex="1" parent="1">
          <mxGeometry x="1000" y="880" width="430" height="220" as="geometry" />
        </mxCell>
        <mxCell id="AmVM3wQ6yCeUiGvBXNtz-30" style="edgeStyle=none;shape=connector;rounded=0;orthogonalLoop=1;jettySize=auto;html=1;labelBackgroundColor=default;strokeColor=default;fontFamily=Helvetica;fontSize=11;fontColor=default;endArrow=classic;" edge="1" parent="1" source="AmVM3wQ6yCeUiGvBXNtz-22" target="AmVM3wQ6yCeUiGvBXNtz-27">
          <mxGeometry relative="1" as="geometry" />
        </mxCell>
        <mxCell id="AmVM3wQ6yCeUiGvBXNtz-22" value="유효성검사 하기" style="ellipse;whiteSpace=wrap;html=1;fontSize=35;" vertex="1" parent="1">
          <mxGeometry x="490" y="1030" width="430" height="220" as="geometry" />
        </mxCell>
        <mxCell id="AmVM3wQ6yCeUiGvBXNtz-25" value="&lt;h1 style=&quot;font-size: 34px;&quot;&gt;유효성 검사&lt;/h1&gt;&lt;div style=&quot;font-size: 34px;&quot;&gt;이메일 중복검사&lt;/div&gt;&lt;div style=&quot;font-size: 34px;&quot;&gt;이메일 형식 검사&lt;/div&gt;&lt;div style=&quot;font-size: 34px;&quot;&gt;비밀번호 적합성 검사&lt;/div&gt;&lt;div style=&quot;font-size: 34px;&quot;&gt;&lt;br&gt;&lt;/div&gt;" style="text;html=1;strokeColor=none;fillColor=none;spacing=5;spacingTop=-20;whiteSpace=wrap;overflow=hidden;rounded=0;fontSize=34;fontFamily=Helvetica;fontColor=default;" vertex="1" parent="1">
          <mxGeometry x="525" y="1280" width="360" height="210" as="geometry" />
        </mxCell>
        <mxCell id="AmVM3wQ6yCeUiGvBXNtz-29" style="edgeStyle=none;shape=connector;rounded=0;orthogonalLoop=1;jettySize=auto;html=1;entryX=0.005;entryY=0.589;entryDx=0;entryDy=0;entryPerimeter=0;labelBackgroundColor=default;strokeColor=default;fontFamily=Helvetica;fontSize=11;fontColor=default;endArrow=classic;" edge="1" parent="1" source="AmVM3wQ6yCeUiGvBXNtz-27" target="AmVM3wQ6yCeUiGvBXNtz-28">
          <mxGeometry relative="1" as="geometry" />
        </mxCell>
        <mxCell id="AmVM3wQ6yCeUiGvBXNtz-27" value="회원정보 저장하기" style="ellipse;whiteSpace=wrap;html=1;fontSize=35;" vertex="1" parent="1">
          <mxGeometry x="1000" y="1250" width="430" height="220" as="geometry" />
        </mxCell>
        <mxCell id="AmVM3wQ6yCeUiGvBXNtz-28" value="&lt;font style=&quot;font-size: 33px;&quot;&gt;회원정보 Table&amp;nbsp;&lt;/font&gt;" style="shape=internalStorage;whiteSpace=wrap;html=1;backgroundOutline=1;fontFamily=Helvetica;fontSize=11;fontColor=default;" vertex="1" parent="1">
          <mxGeometry x="1980" y="900" width="390" height="190" as="geometry" />
        </mxCell>
        <mxCell id="AmVM3wQ6yCeUiGvBXNtz-33" style="edgeStyle=none;shape=connector;rounded=0;orthogonalLoop=1;jettySize=auto;html=1;labelBackgroundColor=default;strokeColor=default;fontFamily=Helvetica;fontSize=11;fontColor=default;endArrow=classic;" edge="1" parent="1" source="AmVM3wQ6yCeUiGvBXNtz-31" target="AmVM3wQ6yCeUiGvBXNtz-28">
          <mxGeometry relative="1" as="geometry" />
        </mxCell>
        <mxCell id="AmVM3wQ6yCeUiGvBXNtz-31" value="회원정보 조회&lt;br&gt;로그인 승인" style="ellipse;whiteSpace=wrap;html=1;fontSize=35;" vertex="1" parent="1">
          <mxGeometry x="1960" y="170" width="430" height="220" as="geometry" />
        </mxCell>
      </root>
    </mxGraphModel>
  </diagram>
</mxfile>
